<svg xmlns="http://www.w3.org/2000/svg" xmlns:xlink="http://www.w3.org/1999/xlink" width="500" zoomAndPan="magnify" viewBox="0 0 375 374.999991" height="500" preserveAspectRatio="xMidYMid meet" version="1.2"><defs><clipPath id="2029e6591e"><path d="M 35 139.195312 L 135 139.195312 L 135 157 L 35 157 Z M 35 139.195312 "/></clipPath><clipPath id="35bf741cff"><path d="M 35 147 L 135 147 L 135 209.695312 L 35 209.695312 Z M 35 147 "/></clipPath><filter x="0%" y="0%" width="100%" filterUnits="objectBoundingBox" id="e42a40c205" height="100%"><feColorMatrix values="0 0 0 0 1 0 0 0 0 1 0 0 0 0 1 0 0 0 1 0" type="matrix" in="SourceGraphic"/></filter><clipPath id="b3791f1d16"><path d="M 0.078125 7 L 13 7 L 13 23 L 0.078125 23 Z M 0.078125 7 "/></clipPath><clipPath id="013f2a4b12"><rect x="0" width="266" y="0" height="30"/></clipPath></defs><g id="a49367066e"><rect x="0" width="375" y="0" height="374.999991" style="fill:#ffffff;fill-opacity:1;stroke:none;"/><rect x="0" width="375" y="0" height="374.999991" style="fill:#faf9f5;fill-opacity:1;stroke:none;"/><g clip-rule="nonzero" clip-path="url(#2029e6591e)"><path style=" stroke:none;fill-rule:nonzero;fill:#d97757;fill-opacity:1;" d="M 134.1875 147.953125 C 134.1875 148.242188 134.109375 148.527344 133.949219 148.8125 C 133.789062 149.097656 133.554688 149.382812 133.238281 149.664062 C 132.921875 149.945312 132.53125 150.222656 132.058594 150.496094 C 131.589844 150.769531 131.046875 151.039062 130.425781 151.304688 C 129.808594 151.570312 129.117188 151.828125 128.355469 152.082031 C 127.589844 152.335938 126.761719 152.582031 125.863281 152.820312 C 124.960938 153.058594 124 153.289062 122.972656 153.507812 C 121.949219 153.730469 120.863281 153.945312 119.71875 154.144531 C 118.574219 154.347656 117.375 154.542969 116.125 154.722656 C 114.875 154.90625 113.578125 155.074219 112.230469 155.234375 C 110.886719 155.394531 109.5 155.542969 108.074219 155.675781 C 106.648438 155.8125 105.1875 155.933594 103.691406 156.042969 C 102.195312 156.15625 100.675781 156.25 99.125 156.335938 C 97.578125 156.417969 96.011719 156.488281 94.425781 156.542969 C 92.835938 156.597656 91.238281 156.640625 89.628906 156.667969 C 88.019531 156.695312 86.40625 156.710938 84.785156 156.710938 C 83.167969 156.710938 81.554688 156.695312 79.945312 156.667969 C 78.335938 156.640625 76.734375 156.597656 75.148438 156.542969 C 73.5625 156.488281 71.996094 156.417969 70.445312 156.335938 C 68.898438 156.25 67.375 156.15625 65.882812 156.042969 C 64.386719 155.933594 62.925781 155.8125 61.5 155.675781 C 60.074219 155.542969 58.6875 155.394531 57.339844 155.234375 C 55.996094 155.074219 54.699219 154.90625 53.449219 154.722656 C 52.195312 154.542969 51 154.347656 49.855469 154.144531 C 48.710938 153.945312 47.625 153.730469 46.601562 153.507812 C 45.574219 153.289062 44.609375 153.058594 43.710938 152.820312 C 42.8125 152.582031 41.980469 152.335938 41.21875 152.082031 C 40.457031 151.828125 39.765625 151.570312 39.148438 151.304688 C 38.527344 151.039062 37.984375 150.769531 37.511719 150.496094 C 37.042969 150.222656 36.652344 149.945312 36.335938 149.664062 C 36.019531 149.382812 35.78125 149.097656 35.625 148.8125 C 35.464844 148.527344 35.386719 148.242188 35.386719 147.953125 C 35.386719 147.667969 35.464844 147.382812 35.625 147.097656 C 35.78125 146.808594 36.019531 146.527344 36.335938 146.246094 C 36.652344 145.964844 37.042969 145.6875 37.511719 145.414062 C 37.984375 145.136719 38.527344 144.867188 39.148438 144.601562 C 39.765625 144.339844 40.457031 144.078125 41.21875 143.828125 C 41.980469 143.574219 42.8125 143.328125 43.710938 143.089844 C 44.609375 142.851562 45.574219 142.621094 46.601562 142.398438 C 47.625 142.175781 48.710938 141.964844 49.855469 141.761719 C 51 141.558594 52.195312 141.367188 53.449219 141.183594 C 54.699219 141.003906 55.996094 140.832031 57.339844 140.671875 C 58.6875 140.515625 60.074219 140.367188 61.5 140.230469 C 62.925781 140.097656 64.386719 139.972656 65.882812 139.863281 C 67.375 139.753906 68.898438 139.65625 70.445312 139.574219 C 71.996094 139.492188 73.5625 139.421875 75.148438 139.367188 C 76.734375 139.308594 78.335938 139.265625 79.945312 139.238281 C 81.554688 139.210938 83.167969 139.195312 84.785156 139.195312 C 86.40625 139.195312 88.019531 139.210938 89.628906 139.238281 C 91.238281 139.265625 92.835938 139.308594 94.425781 139.367188 C 96.011719 139.421875 97.578125 139.492188 99.125 139.574219 C 100.675781 139.65625 102.195312 139.753906 103.691406 139.863281 C 105.1875 139.972656 106.648438 140.097656 108.074219 140.230469 C 109.5 140.367188 110.886719 140.515625 112.230469 140.671875 C 113.578125 140.832031 114.875 141.003906 116.125 141.183594 C 117.375 141.367188 118.574219 141.558594 119.71875 141.761719 C 120.863281 141.964844 121.949219 142.175781 122.972656 142.398438 C 124 142.621094 124.960938 142.851562 125.863281 143.089844 C 126.761719 143.328125 127.589844 143.574219 128.355469 143.828125 C 129.117188 144.078125 129.808594 144.339844 130.425781 144.601562 C 131.046875 144.867188 131.589844 145.136719 132.058594 145.414062 C 132.53125 145.6875 132.921875 145.964844 133.238281 146.246094 C 133.554688 146.527344 133.789062 146.808594 133.949219 147.097656 C 134.109375 147.382812 134.1875 147.667969 134.1875 147.953125 Z M 134.1875 147.953125 "/></g><g clip-rule="nonzero" clip-path="url(#35bf741cff)"><path style=" stroke:none;fill-rule:evenodd;fill:#c96342;fill-opacity:1;" d="M 134.1875 157.179688 L 134.1875 147.953125 C 134.1875 152.804688 112.070312 156.734375 84.785156 156.734375 C 57.5 156.734375 35.386719 152.804688 35.386719 147.953125 L 35.386719 157.179688 C 35.386719 160.273438 44.539062 163.019531 58.316406 164.578125 L 81.324219 187.558594 L 61.410156 207.472656 L 61.929688 208.015625 C 63.339844 209.402344 65.617188 209.402344 67.023438 208.015625 L 84.390625 190.652344 L 101.757812 208.015625 C 103.167969 209.402344 105.441406 209.402344 106.851562 208.015625 L 107.371094 207.472656 L 87.457031 187.558594 L 110.363281 164.675781 C 124.636719 163.144531 134.1875 160.347656 134.1875 157.179688 Z M 65.121094 165.222656 C 71.132812 165.667969 77.785156 165.9375 84.785156 165.9375 C 91.441406 165.9375 97.796875 165.691406 103.613281 165.269531 L 84.390625 184.492188 Z M 65.121094 165.222656 "/></g><g mask="url(#bc2f01d884)" transform="matrix(1,0,0,1,64,207)"><g clip-path="url(#013f2a4b12)"><g clip-rule="nonzero" clip-path="url(#b3791f1d16)"><g style="fill:#000000;fill-opacity:1;"><g transform="translate(0.372039, 22.7527)"><path style="stroke:none" d="M 0.570312 0 L 5.324219 -15.617188 L 7.875 -15.617188 L 12.625 0 L 10.601562 0 L 6.597656 -13.902344 L 2.597656 0 Z M 2.96875 -4.445312 L 3.628906 -6.292969 L 9.570312 -6.292969 L 10.230469 -4.445312 Z M 2.96875 -4.445312 "/></g></g></g><g style="fill:#000000;fill-opacity:1;"><g transform="translate(13.569685, 22.7527)"><path style="stroke:none" d="M 1.847656 0 L 1.847656 -11.660156 L 3.542969 -11.660156 L 3.609375 -8.6875 L 3.386719 -8.886719 C 3.535156 -9.578125 3.800781 -10.144531 4.191406 -10.589844 C 4.578125 -11.039062 5.042969 -11.371094 5.585938 -11.59375 C 6.128906 -11.8125 6.703125 -11.921875 7.304688 -11.921875 C 8.199219 -11.921875 8.941406 -11.726562 9.535156 -11.328125 C 10.128906 -10.933594 10.582031 -10.402344 10.890625 -9.734375 C 11.195312 -9.066406 11.351562 -8.324219 11.351562 -7.5 L 11.351562 0 L 9.503906 0 L 9.503906 -6.972656 C 9.503906 -8.058594 9.289062 -8.882812 8.863281 -9.449219 C 8.441406 -10.011719 7.789062 -10.292969 6.90625 -10.292969 C 6.304688 -10.292969 5.761719 -10.167969 5.28125 -9.910156 C 4.796875 -9.652344 4.410156 -9.277344 4.125 -8.789062 C 3.839844 -8.296875 3.695312 -7.691406 3.695312 -6.972656 L 3.695312 0 Z M 1.847656 0 "/></g></g><g style="fill:#000000;fill-opacity:1;"><g transform="translate(26.767332, 22.7527)"><path style="stroke:none" d=""/></g></g><g style="fill:#000000;fill-opacity:1;"><g transform="translate(39.964978, 22.7527)"><path style="stroke:none" d="M 6.445312 0 L 6.445312 -11.660156 L 8.292969 -11.660156 L 8.292969 0 Z M 1.761719 0 L 1.761719 -1.628906 L 12.320312 -1.628906 L 12.320312 0 Z M 1.980469 -10.03125 L 1.980469 -11.660156 L 8.292969 -11.660156 L 8.292969 -10.03125 Z M 6.269531 -13.484375 L 6.269531 -15.640625 L 8.203125 -15.640625 L 8.203125 -13.484375 Z M 6.269531 -13.484375 "/></g></g><g style="fill:#000000;fill-opacity:1;"><g transform="translate(53.162624, 22.7527)"><path style="stroke:none" d="M 1.847656 0 L 1.847656 -11.660156 L 3.542969 -11.660156 L 3.609375 -8.6875 L 3.386719 -8.886719 C 3.535156 -9.578125 3.800781 -10.144531 4.191406 -10.589844 C 4.578125 -11.039062 5.042969 -11.371094 5.585938 -11.59375 C 6.128906 -11.8125 6.703125 -11.921875 7.304688 -11.921875 C 8.199219 -11.921875 8.941406 -11.726562 9.535156 -11.328125 C 10.128906 -10.933594 10.582031 -10.402344 10.890625 -9.734375 C 11.195312 -9.066406 11.351562 -8.324219 11.351562 -7.5 L 11.351562 0 L 9.503906 0 L 9.503906 -6.972656 C 9.503906 -8.058594 9.289062 -8.882812 8.863281 -9.449219 C 8.441406 -10.011719 7.789062 -10.292969 6.90625 -10.292969 C 6.304688 -10.292969 5.761719 -10.167969 5.28125 -9.910156 C 4.796875 -9.652344 4.410156 -9.277344 4.125 -8.789062 C 3.839844 -8.296875 3.695312 -7.691406 3.695312 -6.972656 L 3.695312 0 Z M 1.847656 0 "/></g></g><g style="fill:#000000;fill-opacity:1;"><g transform="translate(66.360271, 22.7527)"><path style="stroke:none" d="M 8.316406 0 C 7.1875 0 6.34375 -0.265625 5.785156 -0.792969 C 5.226562 -1.320312 4.949219 -2.125 4.949219 -3.210938 L 4.949219 -14.386719 L 6.796875 -14.386719 L 6.796875 -3.210938 C 6.796875 -2.667969 6.921875 -2.269531 7.171875 -2.011719 C 7.421875 -1.757812 7.800781 -1.628906 8.316406 -1.628906 L 11.4375 -1.628906 L 11.4375 0 Z M 1.101562 -10.03125 L 1.101562 -11.660156 L 11.4375 -11.660156 L 11.4375 -10.03125 Z M 1.101562 -10.03125 "/></g></g><g style="fill:#000000;fill-opacity:1;"><g transform="translate(79.557917, 22.7527)"><path style="stroke:none" d="M 6.796875 0.265625 C 5.699219 0.265625 4.746094 0.015625 3.949219 -0.484375 C 3.148438 -0.984375 2.535156 -1.691406 2.101562 -2.605469 C 1.667969 -3.523438 1.453125 -4.597656 1.453125 -5.828125 C 1.453125 -7.0625 1.667969 -8.132812 2.101562 -9.039062 C 2.535156 -9.949219 3.140625 -10.65625 3.925781 -11.164062 C 4.710938 -11.667969 5.640625 -11.921875 6.710938 -11.921875 C 7.722656 -11.921875 8.617188 -11.683594 9.394531 -11.207031 C 10.171875 -10.730469 10.777344 -10.039062 11.21875 -9.128906 C 11.660156 -8.21875 11.878906 -7.113281 11.878906 -5.808594 L 11.878906 -5.257812 L 3.386719 -5.257812 C 3.460938 -4.011719 3.792969 -3.074219 4.386719 -2.441406 C 4.984375 -1.8125 5.785156 -1.496094 6.796875 -1.496094 C 7.558594 -1.496094 8.1875 -1.675781 8.679688 -2.035156 C 9.167969 -2.394531 9.511719 -2.867188 9.699219 -3.453125 L 11.679688 -3.300781 C 11.371094 -2.257812 10.789062 -1.402344 9.933594 -0.738281 C 9.074219 -0.0703125 8.027344 0.265625 6.796875 0.265625 Z M 3.386719 -6.886719 L 9.855469 -6.886719 C 9.765625 -8.015625 9.4375 -8.84375 8.863281 -9.371094 C 8.292969 -9.898438 7.574219 -10.164062 6.710938 -10.164062 C 5.816406 -10.164062 5.078125 -9.886719 4.5 -9.339844 C 3.917969 -8.789062 3.550781 -7.96875 3.386719 -6.886719 Z M 3.386719 -6.886719 "/></g></g><g style="fill:#000000;fill-opacity:1;"><g transform="translate(92.755564, 22.7527)"><path style="stroke:none" d="M 5.015625 0 L 5.015625 -11.660156 L 6.554688 -11.660156 L 6.730469 -8.710938 L 6.554688 -8.753906 C 6.703125 -9.753906 7.019531 -10.484375 7.511719 -10.953125 C 8.003906 -11.425781 8.660156 -11.660156 9.480469 -11.660156 L 11.878906 -11.660156 L 11.878906 -9.988281 L 9.503906 -9.988281 C 8.929688 -9.988281 8.449219 -9.875 8.0625 -9.644531 C 7.671875 -9.417969 7.375 -9.089844 7.171875 -8.65625 C 6.964844 -8.222656 6.863281 -7.683594 6.863281 -7.039062 L 6.863281 0 Z M 1.980469 0 L 1.980469 -1.628906 L 10.558594 -1.628906 L 10.558594 0 Z M 1.980469 -10.03125 L 1.980469 -11.660156 L 6.027344 -11.660156 L 6.027344 -10.03125 Z M 1.980469 -10.03125 "/></g></g><g style="fill:#000000;fill-opacity:1;"><g transform="translate(105.95321, 22.7527)"><path style="stroke:none" d="M 5.058594 0.265625 C 4.328125 0.265625 3.667969 0.132812 3.078125 -0.132812 C 2.492188 -0.394531 2.03125 -0.765625 1.695312 -1.242188 C 1.355469 -1.71875 1.1875 -2.273438 1.1875 -2.902344 C 1.1875 -3.902344 1.484375 -4.675781 2.078125 -5.222656 C 2.671875 -5.773438 3.609375 -6.175781 4.882812 -6.421875 L 8.800781 -7.214844 C 8.800781 -8.210938 8.574219 -8.953125 8.128906 -9.4375 C 7.679688 -9.921875 7.039062 -10.164062 6.203125 -10.164062 C 5.398438 -10.164062 4.765625 -9.984375 4.3125 -9.625 C 3.855469 -9.265625 3.542969 -8.746094 3.367188 -8.074219 L 1.40625 -8.226562 C 1.628906 -9.328125 2.152344 -10.21875 2.980469 -10.898438 C 3.808594 -11.582031 4.882812 -11.921875 6.203125 -11.921875 C 7.609375 -11.921875 8.703125 -11.5 9.480469 -10.65625 C 10.257812 -9.816406 10.648438 -8.652344 10.648438 -7.171875 L 10.648438 -2.332031 C 10.648438 -2.066406 10.707031 -1.882812 10.824219 -1.78125 C 10.941406 -1.679688 11.117188 -1.628906 11.351562 -1.628906 L 12.097656 -1.628906 L 12.097656 0 C 12.011719 0.015625 11.871094 0.0273438 11.679688 0.03125 C 11.488281 0.0390625 11.308594 0.0429688 11.128906 0.0429688 C 10.632812 0.0429688 10.210938 -0.0351562 9.867188 -0.199219 C 9.519531 -0.359375 9.261719 -0.621094 9.085938 -0.980469 C 8.910156 -1.339844 8.8125 -1.804688 8.800781 -2.375 L 9.152344 -2.375 C 9.046875 -1.878906 8.800781 -1.425781 8.414062 -1.023438 C 8.027344 -0.621094 7.539062 -0.304688 6.953125 -0.078125 C 6.363281 0.148438 5.734375 0.265625 5.058594 0.265625 Z M 5.234375 -1.363281 C 6.027344 -1.363281 6.6875 -1.5 7.214844 -1.769531 C 7.742188 -2.042969 8.140625 -2.421875 8.402344 -2.914062 C 8.667969 -3.40625 8.800781 -3.972656 8.800781 -4.621094 L 8.800781 -5.632812 L 5.234375 -4.925781 C 4.445312 -4.78125 3.894531 -4.558594 3.585938 -4.257812 C 3.277344 -3.957031 3.125 -3.5625 3.125 -3.078125 C 3.125 -2.535156 3.3125 -2.117188 3.683594 -1.816406 C 4.058594 -1.515625 4.574219 -1.363281 5.234375 -1.363281 Z M 5.234375 -1.363281 "/></g></g><g style="fill:#000000;fill-opacity:1;"><g transform="translate(119.150856, 22.7527)"><path style="stroke:none" d="M 6.90625 0.265625 C 5.820312 0.265625 4.875 0.015625 4.070312 -0.484375 C 3.261719 -0.984375 2.640625 -1.691406 2.199219 -2.605469 C 1.761719 -3.523438 1.539062 -4.597656 1.539062 -5.828125 C 1.539062 -7.0625 1.761719 -8.132812 2.199219 -9.039062 C 2.640625 -9.949219 3.261719 -10.65625 4.070312 -11.164062 C 4.875 -11.667969 5.820312 -11.921875 6.90625 -11.921875 C 7.773438 -11.921875 8.542969 -11.765625 9.21875 -11.449219 C 9.890625 -11.132812 10.449219 -10.675781 10.890625 -10.074219 C 11.328125 -9.472656 11.628906 -8.742188 11.789062 -7.875 L 9.855469 -7.742188 C 9.679688 -8.519531 9.332031 -9.117188 8.808594 -9.535156 C 8.289062 -9.953125 7.65625 -10.164062 6.90625 -10.164062 C 5.835938 -10.164062 4.996094 -9.777344 4.386719 -9.007812 C 3.78125 -8.238281 3.476562 -7.179688 3.476562 -5.828125 C 3.476562 -4.480469 3.78125 -3.421875 4.386719 -2.652344 C 4.996094 -1.878906 5.835938 -1.496094 6.90625 -1.496094 C 7.65625 -1.496094 8.304688 -1.714844 8.855469 -2.15625 C 9.402344 -2.597656 9.765625 -3.253906 9.941406 -4.136719 L 11.878906 -4.003906 C 11.71875 -3.136719 11.410156 -2.386719 10.953125 -1.75 C 10.5 -1.109375 9.929688 -0.617188 9.238281 -0.265625 C 8.550781 0.0898438 7.773438 0.265625 6.90625 0.265625 Z M 6.90625 0.265625 "/></g></g><g style="fill:#000000;fill-opacity:1;"><g transform="translate(132.348503, 22.7527)"><path style="stroke:none" d="M 8.316406 0 C 7.1875 0 6.34375 -0.265625 5.785156 -0.792969 C 5.226562 -1.320312 4.949219 -2.125 4.949219 -3.210938 L 4.949219 -14.386719 L 6.796875 -14.386719 L 6.796875 -3.210938 C 6.796875 -2.667969 6.921875 -2.269531 7.171875 -2.011719 C 7.421875 -1.757812 7.800781 -1.628906 8.316406 -1.628906 L 11.4375 -1.628906 L 11.4375 0 Z M 1.101562 -10.03125 L 1.101562 -11.660156 L 11.4375 -11.660156 L 11.4375 -10.03125 Z M 1.101562 -10.03125 "/></g></g><g style="fill:#000000;fill-opacity:1;"><g transform="translate(145.546149, 22.7527)"><path style="stroke:none" d="M 6.445312 0 L 6.445312 -11.660156 L 8.292969 -11.660156 L 8.292969 0 Z M 1.761719 0 L 1.761719 -1.628906 L 12.320312 -1.628906 L 12.320312 0 Z M 1.980469 -10.03125 L 1.980469 -11.660156 L 8.292969 -11.660156 L 8.292969 -10.03125 Z M 6.269531 -13.484375 L 6.269531 -15.640625 L 8.203125 -15.640625 L 8.203125 -13.484375 Z M 6.269531 -13.484375 "/></g></g><g style="fill:#000000;fill-opacity:1;"><g transform="translate(158.743795, 22.7527)"><path style="stroke:none" d="M 5.433594 0 L 1.101562 -11.660156 L 3.125 -11.660156 L 6.597656 -1.890625 L 10.074219 -11.660156 L 12.097656 -11.660156 L 7.765625 0 Z M 5.433594 0 "/></g></g><g style="fill:#000000;fill-opacity:1;"><g transform="translate(171.941442, 22.7527)"><path style="stroke:none" d="M 6.796875 0.265625 C 5.699219 0.265625 4.746094 0.015625 3.949219 -0.484375 C 3.148438 -0.984375 2.535156 -1.691406 2.101562 -2.605469 C 1.667969 -3.523438 1.453125 -4.597656 1.453125 -5.828125 C 1.453125 -7.0625 1.667969 -8.132812 2.101562 -9.039062 C 2.535156 -9.949219 3.140625 -10.65625 3.925781 -11.164062 C 4.710938 -11.667969 5.640625 -11.921875 6.710938 -11.921875 C 7.722656 -11.921875 8.617188 -11.683594 9.394531 -11.207031 C 10.171875 -10.730469 10.777344 -10.039062 11.21875 -9.128906 C 11.660156 -8.21875 11.878906 -7.113281 11.878906 -5.808594 L 11.878906 -5.257812 L 3.386719 -5.257812 C 3.460938 -4.011719 3.792969 -3.074219 4.386719 -2.441406 C 4.984375 -1.8125 5.785156 -1.496094 6.796875 -1.496094 C 7.558594 -1.496094 8.1875 -1.675781 8.679688 -2.035156 C 9.167969 -2.394531 9.511719 -2.867188 9.699219 -3.453125 L 11.679688 -3.300781 C 11.371094 -2.257812 10.789062 -1.402344 9.933594 -0.738281 C 9.074219 -0.0703125 8.027344 0.265625 6.796875 0.265625 Z M 3.386719 -6.886719 L 9.855469 -6.886719 C 9.765625 -8.015625 9.4375 -8.84375 8.863281 -9.371094 C 8.292969 -9.898438 7.574219 -10.164062 6.710938 -10.164062 C 5.816406 -10.164062 5.078125 -9.886719 4.5 -9.339844 C 3.917969 -8.789062 3.550781 -7.96875 3.386719 -6.886719 Z M 3.386719 -6.886719 "/></g></g><g style="fill:#000000;fill-opacity:1;"><g transform="translate(185.139088, 22.7527)"><path style="stroke:none" d=""/></g></g><g style="fill:#000000;fill-opacity:1;"><g transform="translate(198.336735, 22.7527)"><path style="stroke:none" d="M 8.316406 0 C 7.1875 0 6.34375 -0.265625 5.785156 -0.792969 C 5.226562 -1.320312 4.949219 -2.125 4.949219 -3.210938 L 4.949219 -14.386719 L 6.796875 -14.386719 L 6.796875 -3.210938 C 6.796875 -2.667969 6.921875 -2.269531 7.171875 -2.011719 C 7.421875 -1.757812 7.800781 -1.628906 8.316406 -1.628906 L 11.4375 -1.628906 L 11.4375 0 Z M 1.101562 -10.03125 L 1.101562 -11.660156 L 11.4375 -11.660156 L 11.4375 -10.03125 Z M 1.101562 -10.03125 "/></g></g><g style="fill:#000000;fill-opacity:1;"><g transform="translate(211.534381, 22.7527)"><path style="stroke:none" d="M 5.058594 0.265625 C 4.328125 0.265625 3.667969 0.132812 3.078125 -0.132812 C 2.492188 -0.394531 2.03125 -0.765625 1.695312 -1.242188 C 1.355469 -1.71875 1.1875 -2.273438 1.1875 -2.902344 C 1.1875 -3.902344 1.484375 -4.675781 2.078125 -5.222656 C 2.671875 -5.773438 3.609375 -6.175781 4.882812 -6.421875 L 8.800781 -7.214844 C 8.800781 -8.210938 8.574219 -8.953125 8.128906 -9.4375 C 7.679688 -9.921875 7.039062 -10.164062 6.203125 -10.164062 C 5.398438 -10.164062 4.765625 -9.984375 4.3125 -9.625 C 3.855469 -9.265625 3.542969 -8.746094 3.367188 -8.074219 L 1.40625 -8.226562 C 1.628906 -9.328125 2.152344 -10.21875 2.980469 -10.898438 C 3.808594 -11.582031 4.882812 -11.921875 6.203125 -11.921875 C 7.609375 -11.921875 8.703125 -11.5 9.480469 -10.65625 C 10.257812 -9.816406 10.648438 -8.652344 10.648438 -7.171875 L 10.648438 -2.332031 C 10.648438 -2.066406 10.707031 -1.882812 10.824219 -1.78125 C 10.941406 -1.679688 11.117188 -1.628906 11.351562 -1.628906 L 12.097656 -1.628906 L 12.097656 0 C 12.011719 0.015625 11.871094 0.0273438 11.679688 0.03125 C 11.488281 0.0390625 11.308594 0.0429688 11.128906 0.0429688 C 10.632812 0.0429688 10.210938 -0.0351562 9.867188 -0.199219 C 9.519531 -0.359375 9.261719 -0.621094 9.085938 -0.980469 C 8.910156 -1.339844 8.8125 -1.804688 8.800781 -2.375 L 9.152344 -2.375 C 9.046875 -1.878906 8.800781 -1.425781 8.414062 -1.023438 C 8.027344 -0.621094 7.539062 -0.304688 6.953125 -0.078125 C 6.363281 0.148438 5.734375 0.265625 5.058594 0.265625 Z M 5.234375 -1.363281 C 6.027344 -1.363281 6.6875 -1.5 7.214844 -1.769531 C 7.742188 -2.042969 8.140625 -2.421875 8.402344 -2.914062 C 8.667969 -3.40625 8.800781 -3.972656 8.800781 -4.621094 L 8.800781 -5.632812 L 5.234375 -4.925781 C 4.445312 -4.78125 3.894531 -4.558594 3.585938 -4.257812 C 3.277344 -3.957031 3.125 -3.5625 3.125 -3.078125 C 3.125 -2.535156 3.3125 -2.117188 3.683594 -1.816406 C 4.058594 -1.515625 4.574219 -1.363281 5.234375 -1.363281 Z M 5.234375 -1.363281 "/></g></g><g style="fill:#000000;fill-opacity:1;"><g transform="translate(224.732027, 22.7527)"><path style="stroke:none" d="M 7.324219 0.265625 C 6.519531 0.265625 5.800781 0.0859375 5.167969 -0.273438 C 4.539062 -0.632812 4.054688 -1.128906 3.71875 -1.761719 L 3.652344 0 L 1.980469 0 L 1.980469 -15.617188 L 3.828125 -15.617188 L 3.828125 -10.03125 C 4.121094 -10.515625 4.574219 -10.949219 5.191406 -11.339844 C 5.808594 -11.726562 6.519531 -11.921875 7.324219 -11.921875 C 8.351562 -11.921875 9.238281 -11.671875 9.988281 -11.175781 C 10.734375 -10.675781 11.308594 -9.972656 11.714844 -9.0625 C 12.117188 -8.152344 12.320312 -7.074219 12.320312 -5.828125 C 12.320312 -4.582031 12.117188 -3.503906 11.714844 -2.597656 C 11.308594 -1.6875 10.734375 -0.984375 9.988281 -0.484375 C 9.238281 0.015625 8.351562 0.265625 7.324219 0.265625 Z M 7.214844 -1.496094 C 8.199219 -1.496094 8.972656 -1.882812 9.535156 -2.660156 C 10.101562 -3.4375 10.382812 -4.496094 10.382812 -5.828125 C 10.382812 -7.179688 10.101562 -8.238281 9.535156 -9.007812 C 8.972656 -9.777344 8.210938 -10.164062 7.257812 -10.164062 C 6.539062 -10.164062 5.925781 -9.992188 5.410156 -9.644531 C 4.898438 -9.300781 4.503906 -8.804688 4.234375 -8.160156 C 3.964844 -7.515625 3.828125 -6.738281 3.828125 -5.828125 C 3.828125 -4.949219 3.964844 -4.183594 4.234375 -3.53125 C 4.503906 -2.878906 4.894531 -2.375 5.398438 -2.023438 C 5.90625 -1.671875 6.511719 -1.496094 7.214844 -1.496094 Z M 7.214844 -1.496094 "/></g></g><g style="fill:#000000;fill-opacity:1;"><g transform="translate(237.929674, 22.7527)"><path style="stroke:none" d="M 6.003906 0 L 6.003906 -12.496094 C 6.003906 -12.964844 5.875 -13.332031 5.609375 -13.59375 C 5.34375 -13.859375 4.980469 -13.992188 4.507812 -13.992188 L 1.761719 -13.992188 L 1.761719 -15.617188 L 4.597656 -15.617188 C 5.667969 -15.617188 6.476562 -15.34375 7.027344 -14.792969 C 7.578125 -14.242188 7.851562 -13.433594 7.851562 -12.363281 L 7.851562 0 Z M 1.320312 0 L 1.320312 -1.628906 L 11.878906 -1.628906 L 11.878906 0 Z M 1.320312 0 "/></g></g><g style="fill:#000000;fill-opacity:1;"><g transform="translate(251.12732, 22.7527)"><path style="stroke:none" d="M 6.796875 0.265625 C 5.699219 0.265625 4.746094 0.015625 3.949219 -0.484375 C 3.148438 -0.984375 2.535156 -1.691406 2.101562 -2.605469 C 1.667969 -3.523438 1.453125 -4.597656 1.453125 -5.828125 C 1.453125 -7.0625 1.667969 -8.132812 2.101562 -9.039062 C 2.535156 -9.949219 3.140625 -10.65625 3.925781 -11.164062 C 4.710938 -11.667969 5.640625 -11.921875 6.710938 -11.921875 C 7.722656 -11.921875 8.617188 -11.683594 9.394531 -11.207031 C 10.171875 -10.730469 10.777344 -10.039062 11.21875 -9.128906 C 11.660156 -8.21875 11.878906 -7.113281 11.878906 -5.808594 L 11.878906 -5.257812 L 3.386719 -5.257812 C 3.460938 -4.011719 3.792969 -3.074219 4.386719 -2.441406 C 4.984375 -1.8125 5.785156 -1.496094 6.796875 -1.496094 C 7.558594 -1.496094 8.1875 -1.675781 8.679688 -2.035156 C 9.167969 -2.394531 9.511719 -2.867188 9.699219 -3.453125 L 11.679688 -3.300781 C 11.371094 -2.257812 10.789062 -1.402344 9.933594 -0.738281 C 9.074219 -0.0703125 8.027344 0.265625 6.796875 0.265625 Z M 3.386719 -6.886719 L 9.855469 -6.886719 C 9.765625 -8.015625 9.4375 -8.84375 8.863281 -9.371094 C 8.292969 -9.898438 7.574219 -10.164062 6.710938 -10.164062 C 5.816406 -10.164062 5.078125 -9.886719 4.5 -9.339844 C 3.917969 -8.789062 3.550781 -7.96875 3.386719 -6.886719 Z M 3.386719 -6.886719 "/></g></g></g><mask id="bc2f01d884"><g filter="url(#e42a40c205)"><rect x="0" width="375" y="0" height="374.999991" style="fill:#000000;fill-opacity:0.43;stroke:none;"/></g></mask></g><g style="fill:#262624;fill-opacity:1;"><g transform="translate(138.856548, 194.802599)"><path style="stroke:none" d="M 14.390625 0 L 14.390625 -35.054688 L 2.238281 -35.054688 L 2.238281 -39.757812 L 31.355469 -39.757812 L 31.355469 -35.054688 L 19.207031 -35.054688 L 19.207031 0 Z M 14.390625 0 "/></g></g><g style="fill:#262624;fill-opacity:1;"><g transform="translate(172.451856, 194.802599)"><path style="stroke:none" d="M 12.878906 0.671875 C 11.011719 0.671875 9.332031 0.335938 7.839844 -0.335938 C 6.347656 -1.007812 5.171875 -1.949219 4.3125 -3.164062 C 3.453125 -4.375 3.023438 -5.785156 3.023438 -7.390625 C 3.023438 -9.929688 3.78125 -11.898438 5.292969 -13.296875 C 6.804688 -14.699219 9.183594 -15.714844 12.429688 -16.351562 L 22.398438 -18.367188 C 22.398438 -20.90625 21.828125 -22.789062 20.691406 -24.023438 C 19.550781 -25.253906 17.917969 -25.871094 15.789062 -25.871094 C 13.738281 -25.871094 12.132812 -25.414062 10.976562 -24.496094 C 9.816406 -23.582031 9.015625 -22.265625 8.566406 -20.550781 L 3.582031 -20.941406 C 4.144531 -23.742188 5.476562 -26.007812 7.585938 -27.746094 C 9.695312 -29.480469 12.429688 -30.347656 15.789062 -30.347656 C 19.375 -30.347656 22.15625 -29.277344 24.132812 -27.128906 C 26.113281 -24.984375 27.101562 -22.023438 27.101562 -18.253906 L 27.101562 -5.933594 C 27.101562 -5.261719 27.25 -4.796875 27.550781 -4.535156 C 27.847656 -4.273438 28.296875 -4.144531 28.894531 -4.144531 L 30.796875 -4.144531 L 30.796875 0 C 30.574219 0.0390625 30.21875 0.0664062 29.734375 0.0859375 C 29.25 0.101562 28.78125 0.113281 28.332031 0.113281 C 27.0625 0.113281 25.992188 -0.09375 25.113281 -0.503906 C 24.238281 -0.914062 23.574219 -1.578125 23.125 -2.492188 C 22.679688 -3.40625 22.433594 -4.589844 22.398438 -6.046875 L 23.292969 -6.046875 C 23.03125 -4.777344 22.40625 -3.628906 21.417969 -2.605469 C 20.429688 -1.578125 19.1875 -0.773438 17.695312 -0.195312 C 16.203125 0.382812 14.597656 0.671875 12.878906 0.671875 Z M 13.328125 -3.472656 C 15.34375 -3.472656 17.023438 -3.816406 18.367188 -4.507812 C 19.710938 -5.199219 20.71875 -6.167969 21.390625 -7.417969 C 22.0625 -8.667969 22.398438 -10.117188 22.398438 -11.757812 L 22.398438 -14.335938 L 13.328125 -12.542969 C 11.3125 -12.167969 9.910156 -11.601562 9.128906 -10.835938 C 8.34375 -10.070312 7.953125 -9.070312 7.953125 -7.839844 C 7.953125 -6.457031 8.425781 -5.386719 9.378906 -4.621094 C 10.332031 -3.855469 11.648438 -3.472656 13.328125 -3.472656 Z M 13.328125 -3.472656 "/></g></g><g style="fill:#262624;fill-opacity:1;"><g transform="translate(206.047164, 194.802599)"><path style="stroke:none" d="M 18.644531 0.671875 C 16.59375 0.671875 14.765625 0.214844 13.160156 -0.699219 C 11.554688 -1.613281 10.320312 -2.875 9.464844 -4.480469 L 9.296875 0 L 5.039062 0 L 5.039062 -39.757812 L 9.742188 -39.757812 L 9.742188 -25.535156 C 10.488281 -26.765625 11.648438 -27.875 13.214844 -28.867188 C 14.78125 -29.855469 16.59375 -30.347656 18.644531 -30.347656 C 21.257812 -30.347656 23.519531 -29.714844 25.421875 -28.445312 C 27.324219 -27.175781 28.789062 -25.382812 29.816406 -23.070312 C 30.84375 -20.753906 31.355469 -18.011719 31.355469 -14.839844 C 31.355469 -11.664062 30.84375 -8.921875 29.816406 -6.605469 C 28.789062 -4.292969 27.324219 -2.5 25.421875 -1.230469 C 23.519531 0.0390625 21.257812 0.671875 18.644531 0.671875 Z M 18.367188 -3.808594 C 20.867188 -3.808594 22.835938 -4.796875 24.273438 -6.777344 C 25.710938 -8.753906 26.429688 -11.441406 26.429688 -14.839844 C 26.429688 -18.273438 25.710938 -20.96875 24.273438 -22.929688 C 22.835938 -24.890625 20.90625 -25.871094 18.476562 -25.871094 C 16.648438 -25.871094 15.082031 -25.429688 13.773438 -24.554688 C 12.46875 -23.675781 11.46875 -22.417969 10.777344 -20.773438 C 10.089844 -19.132812 9.742188 -17.152344 9.742188 -14.839844 C 9.742188 -12.597656 10.089844 -10.648438 10.777344 -8.988281 C 11.46875 -7.324219 12.457031 -6.046875 13.746094 -5.152344 C 15.035156 -4.253906 16.574219 -3.808594 18.367188 -3.808594 Z M 18.367188 -3.808594 "/></g></g><g style="fill:#262624;fill-opacity:1;"><g transform="translate(239.642472, 194.802599)"><path style="stroke:none" d="M 14.726562 0.671875 C 11.777344 0.671875 9.425781 -0.328125 7.671875 -2.324219 C 5.917969 -4.320312 5.039062 -7.074219 5.039062 -10.582031 L 5.039062 -29.675781 L 9.742188 -29.675781 L 9.742188 -11.871094 C 9.742188 -8.996094 10.257812 -6.878906 11.28125 -5.515625 C 12.308594 -4.152344 13.886719 -3.472656 16.015625 -3.472656 C 18.328125 -3.472656 20.15625 -4.226562 21.503906 -5.738281 C 22.847656 -7.25 23.519531 -9.332031 23.519531 -11.984375 L 23.519531 -29.675781 L 28.222656 -29.675781 L 28.222656 0 L 23.742188 0 L 23.742188 -7.335938 L 24.46875 -6.945312 C 23.871094 -4.515625 22.734375 -2.640625 21.054688 -1.316406 C 19.375 0.0078125 17.265625 0.671875 14.726562 0.671875 Z M 14.726562 0.671875 "/></g></g><g style="fill:#262624;fill-opacity:1;"><g transform="translate(273.23778, 194.802599)"><path style="stroke:none" d="M 15.285156 0 L 15.285156 -31.804688 C 15.285156 -33 14.949219 -33.933594 14.277344 -34.605469 C 13.605469 -35.277344 12.671875 -35.613281 11.480469 -35.613281 L 4.480469 -35.613281 L 4.480469 -39.757812 L 11.703125 -39.757812 C 14.429688 -39.757812 16.492188 -39.054688 17.890625 -37.65625 C 19.289062 -36.257812 19.988281 -34.195312 19.988281 -31.46875 L 19.988281 0 Z M 3.359375 0 L 3.359375 -4.144531 L 30.238281 -4.144531 L 30.238281 0 Z M 3.359375 0 "/></g></g><g style="fill:#262624;fill-opacity:1;"><g transform="translate(306.833088, 194.802599)"><path style="stroke:none" d="M 12.878906 0.671875 C 11.011719 0.671875 9.332031 0.335938 7.839844 -0.335938 C 6.347656 -1.007812 5.171875 -1.949219 4.3125 -3.164062 C 3.453125 -4.375 3.023438 -5.785156 3.023438 -7.390625 C 3.023438 -9.929688 3.78125 -11.898438 5.292969 -13.296875 C 6.804688 -14.699219 9.183594 -15.714844 12.429688 -16.351562 L 22.398438 -18.367188 C 22.398438 -20.90625 21.828125 -22.789062 20.691406 -24.023438 C 19.550781 -25.253906 17.917969 -25.871094 15.789062 -25.871094 C 13.738281 -25.871094 12.132812 -25.414062 10.976562 -24.496094 C 9.816406 -23.582031 9.015625 -22.265625 8.566406 -20.550781 L 3.582031 -20.941406 C 4.144531 -23.742188 5.476562 -26.007812 7.585938 -27.746094 C 9.695312 -29.480469 12.429688 -30.347656 15.789062 -30.347656 C 19.375 -30.347656 22.15625 -29.277344 24.132812 -27.128906 C 26.113281 -24.984375 27.101562 -22.023438 27.101562 -18.253906 L 27.101562 -5.933594 C 27.101562 -5.261719 27.25 -4.796875 27.550781 -4.535156 C 27.847656 -4.273438 28.296875 -4.144531 28.894531 -4.144531 L 30.796875 -4.144531 L 30.796875 0 C 30.574219 0.0390625 30.21875 0.0664062 29.734375 0.0859375 C 29.25 0.101562 28.78125 0.113281 28.332031 0.113281 C 27.0625 0.113281 25.992188 -0.09375 25.113281 -0.503906 C 24.238281 -0.914062 23.574219 -1.578125 23.125 -2.492188 C 22.679688 -3.40625 22.433594 -4.589844 22.398438 -6.046875 L 23.292969 -6.046875 C 23.03125 -4.777344 22.40625 -3.628906 21.417969 -2.605469 C 20.429688 -1.578125 19.1875 -0.773438 17.695312 -0.195312 C 16.203125 0.382812 14.597656 0.671875 12.878906 0.671875 Z M 13.328125 -3.472656 C 15.34375 -3.472656 17.023438 -3.816406 18.367188 -4.507812 C 19.710938 -5.199219 20.71875 -6.167969 21.390625 -7.417969 C 22.0625 -8.667969 22.398438 -10.117188 22.398438 -11.757812 L 22.398438 -14.335938 L 13.328125 -12.542969 C 11.3125 -12.167969 9.910156 -11.601562 9.128906 -10.835938 C 8.34375 -10.070312 7.953125 -9.070312 7.953125 -7.839844 C 7.953125 -6.457031 8.425781 -5.386719 9.378906 -4.621094 C 10.332031 -3.855469 11.648438 -3.472656 13.328125 -3.472656 Z M 13.328125 -3.472656 "/></g></g></g></svg>