<svg xmlns="http://www.w3.org/2000/svg" xmlns:xlink="http://www.w3.org/1999/xlink" width="500" zoomAndPan="magnify" viewBox="0 0 375 374.999991" height="500" preserveAspectRatio="xMidYMid meet" version="1.2"><defs><clipPath id="c2a9e53478"><path d="M 12 63.253906 L 363 63.253906 L 363 126 L 12 126 Z M 12 63.253906 "/></clipPath></defs><g id="d7932550f3"><rect x="0" width="375" y="0" height="374.999991" style="fill:#ffffff;fill-opacity:1;stroke:none;"/><rect x="0" width="375" y="0" height="374.999991" style="fill:#ffffff;fill-opacity:1;stroke:none;"/><g clip-rule="nonzero" clip-path="url(#c2a9e53478)"><path style=" stroke:none;fill-rule:nonzero;fill:#c96342;fill-opacity:1;" d="M 362.066406 94.195312 C 362.066406 94.703125 361.996094 95.210938 361.855469 95.714844 C 361.714844 96.222656 361.503906 96.726562 361.226562 97.230469 C 360.945312 97.734375 360.597656 98.238281 360.175781 98.738281 C 359.757812 99.238281 359.269531 99.738281 358.710938 100.234375 C 358.15625 100.730469 357.527344 101.226562 356.835938 101.714844 C 356.140625 102.207031 355.378906 102.695312 354.550781 103.179688 C 353.71875 103.664062 352.824219 104.144531 351.863281 104.621094 C 350.898438 105.097656 349.871094 105.570312 348.777344 106.039062 C 347.683594 106.507812 346.527344 106.96875 345.304688 107.425781 C 344.085938 107.886719 342.800781 108.335938 341.453125 108.785156 C 340.105469 109.230469 338.699219 109.671875 337.230469 110.105469 C 335.761719 110.539062 334.234375 110.96875 332.648438 111.390625 C 331.058594 111.808594 329.414062 112.222656 327.714844 112.628906 C 326.011719 113.039062 324.253906 113.4375 322.441406 113.828125 C 320.628906 114.21875 318.765625 114.601562 316.847656 114.976562 C 314.925781 115.351562 312.957031 115.71875 310.9375 116.078125 C 308.917969 116.4375 306.847656 116.785156 304.734375 117.125 C 302.617188 117.464844 300.453125 117.796875 298.246094 118.117188 C 296.035156 118.4375 293.785156 118.75 291.492188 119.050781 C 289.195312 119.351562 286.859375 119.644531 284.484375 119.925781 C 282.109375 120.207031 279.699219 120.476562 277.246094 120.738281 C 274.796875 121 272.3125 121.25 269.792969 121.488281 C 267.273438 121.726562 264.722656 121.953125 262.140625 122.171875 C 259.554688 122.386719 256.945312 122.589844 254.304688 122.785156 C 251.667969 122.980469 249.003906 123.160156 246.3125 123.332031 C 243.621094 123.503906 240.910156 123.660156 238.175781 123.808594 C 235.441406 123.957031 232.691406 124.089844 229.917969 124.214844 C 227.148438 124.335938 224.363281 124.449219 221.558594 124.546875 C 218.757812 124.644531 215.945312 124.730469 213.117188 124.804688 C 210.292969 124.878906 207.457031 124.941406 204.613281 124.992188 C 201.769531 125.042969 198.921875 125.078125 196.070312 125.105469 C 193.214844 125.128906 190.359375 125.140625 187.503906 125.140625 C 184.648438 125.140625 181.792969 125.128906 178.9375 125.105469 C 176.085938 125.078125 173.238281 125.042969 170.394531 124.992188 C 167.550781 124.941406 164.714844 124.878906 161.890625 124.804688 C 159.066406 124.730469 156.25 124.644531 153.449219 124.546875 C 150.648438 124.449219 147.859375 124.335938 145.089844 124.214844 C 142.316406 124.089844 139.566406 123.957031 136.832031 123.808594 C 134.097656 123.660156 131.386719 123.503906 128.695312 123.332031 C 126.007812 123.160156 123.34375 122.980469 120.703125 122.785156 C 118.0625 122.589844 115.453125 122.386719 112.871094 122.171875 C 110.285156 121.953125 107.734375 121.726562 105.214844 121.488281 C 102.695312 121.25 100.210938 121 97.761719 120.738281 C 95.3125 120.476562 92.898438 120.207031 90.523438 119.925781 C 88.148438 119.644531 85.8125 119.351562 83.519531 119.050781 C 81.222656 118.75 78.972656 118.4375 76.761719 118.117188 C 74.554688 117.796875 72.394531 117.464844 70.277344 117.125 C 68.160156 116.785156 66.089844 116.4375 64.070312 116.078125 C 62.050781 115.71875 60.082031 115.351562 58.164062 114.976562 C 56.246094 114.601562 54.378906 114.21875 52.566406 113.828125 C 50.753906 113.4375 48.996094 113.039062 47.296875 112.628906 C 45.59375 112.222656 43.949219 111.808594 42.363281 111.390625 C 40.773438 110.96875 39.246094 110.539062 37.777344 110.105469 C 36.308594 109.671875 34.902344 109.230469 33.554688 108.785156 C 32.207031 108.335938 30.925781 107.886719 29.703125 107.425781 C 28.480469 106.96875 27.324219 106.507812 26.230469 106.039062 C 25.136719 105.570312 24.109375 105.097656 23.148438 104.621094 C 22.183594 104.144531 21.289062 103.664062 20.460938 103.179688 C 19.628906 102.695312 18.867188 102.207031 18.175781 101.714844 C 17.480469 101.226562 16.855469 100.730469 16.296875 100.234375 C 15.738281 99.738281 15.25 99.238281 14.832031 98.738281 C 14.414062 98.238281 14.0625 97.734375 13.785156 97.230469 C 13.503906 96.726562 13.292969 96.222656 13.152344 95.714844 C 13.011719 95.210938 12.941406 94.703125 12.941406 94.195312 C 12.941406 93.691406 13.011719 93.183594 13.152344 92.679688 C 13.292969 92.171875 13.503906 91.667969 13.785156 91.164062 C 14.0625 90.660156 14.414062 90.15625 14.832031 89.65625 C 15.25 89.15625 15.738281 88.65625 16.296875 88.160156 C 16.855469 87.664062 17.480469 87.167969 18.175781 86.679688 C 18.867188 86.1875 19.628906 85.699219 20.460938 85.214844 C 21.289062 84.730469 22.183594 84.25 23.148438 83.773438 C 24.109375 83.296875 25.136719 82.824219 26.230469 82.355469 C 27.324219 81.886719 28.480469 81.425781 29.703125 80.96875 C 30.925781 80.507812 32.207031 80.058594 33.554688 79.609375 C 34.902344 79.164062 36.308594 78.722656 37.777344 78.289062 C 39.246094 77.855469 40.773438 77.425781 42.363281 77.003906 C 43.949219 76.585938 45.59375 76.171875 47.296875 75.765625 C 48.996094 75.355469 50.753906 74.957031 52.566406 74.566406 C 54.378906 74.175781 56.246094 73.792969 58.164062 73.417969 C 60.082031 73.042969 62.050781 72.675781 64.070312 72.316406 C 66.089844 71.957031 68.160156 71.609375 70.277344 71.269531 C 72.394531 70.929688 74.554688 70.597656 76.761719 70.277344 C 78.972656 69.957031 81.222656 69.644531 83.519531 69.34375 C 85.8125 69.042969 88.148438 68.75 90.523438 68.46875 C 92.898438 68.1875 95.3125 67.917969 97.761719 67.65625 C 100.210938 67.394531 102.695312 67.144531 105.214844 66.90625 C 107.734375 66.667969 110.285156 66.441406 112.871094 66.222656 C 115.453125 66.007812 118.0625 65.800781 120.703125 65.609375 C 123.34375 65.414062 126.007812 65.234375 128.695312 65.0625 C 131.386719 64.890625 134.097656 64.734375 136.832031 64.585938 C 139.566406 64.4375 142.316406 64.304688 145.089844 64.179688 C 147.859375 64.058594 150.648438 63.945312 153.449219 63.847656 C 156.25 63.75 159.066406 63.664062 161.890625 63.589844 C 164.714844 63.515625 167.550781 63.453125 170.394531 63.402344 C 173.238281 63.351562 176.085938 63.316406 178.9375 63.289062 C 181.792969 63.265625 184.648438 63.253906 187.503906 63.253906 C 190.359375 63.253906 193.214844 63.265625 196.070312 63.289062 C 198.921875 63.316406 201.769531 63.351562 204.613281 63.402344 C 207.457031 63.453125 210.292969 63.515625 213.117188 63.589844 C 215.945312 63.664062 218.757812 63.75 221.558594 63.847656 C 224.363281 63.945312 227.148438 64.058594 229.917969 64.179688 C 232.691406 64.304688 235.441406 64.4375 238.175781 64.585938 C 240.910156 64.734375 243.621094 64.890625 246.3125 65.0625 C 249.003906 65.234375 251.667969 65.414062 254.304688 65.609375 C 256.945312 65.800781 259.554688 66.007812 262.140625 66.222656 C 264.722656 66.441406 267.273438 66.667969 269.792969 66.90625 C 272.3125 67.144531 274.796875 67.394531 277.246094 67.65625 C 279.699219 67.917969 282.109375 68.1875 284.484375 68.46875 C 286.859375 68.75 289.195312 69.042969 291.492188 69.34375 C 293.785156 69.644531 296.035156 69.957031 298.246094 70.277344 C 300.453125 70.597656 302.617188 70.929688 304.734375 71.269531 C 306.847656 71.609375 308.917969 71.957031 310.9375 72.316406 C 312.957031 72.675781 314.925781 73.042969 316.847656 73.417969 C 318.765625 73.792969 320.628906 74.175781 322.441406 74.566406 C 324.253906 74.957031 326.011719 75.355469 327.714844 75.765625 C 329.414062 76.171875 331.058594 76.585938 332.648438 77.003906 C 334.234375 77.425781 335.761719 77.855469 337.230469 78.289062 C 338.699219 78.722656 340.105469 79.164062 341.453125 79.609375 C 342.800781 80.058594 344.085938 80.507812 345.304688 80.96875 C 346.527344 81.425781 347.683594 81.886719 348.777344 82.355469 C 349.871094 82.824219 350.898438 83.296875 351.863281 83.773438 C 352.824219 84.25 353.71875 84.730469 354.550781 85.214844 C 355.378906 85.699219 356.140625 86.1875 356.835938 86.679688 C 357.527344 87.167969 358.15625 87.664062 358.710938 88.160156 C 359.269531 88.65625 359.757812 89.15625 360.175781 89.65625 C 360.597656 90.15625 360.945312 90.660156 361.226562 91.164062 C 361.503906 91.667969 361.714844 92.171875 361.855469 92.679688 C 361.996094 93.183594 362.066406 93.691406 362.066406 94.195312 Z M 362.066406 94.195312 "/></g><path style=" stroke:none;fill-rule:evenodd;fill:#d97757;fill-opacity:1;" d="M 362.066406 126.800781 L 362.066406 94.195312 C 362.066406 111.328125 283.917969 125.226562 187.503906 125.226562 C 91.089844 125.226562 12.941406 111.328125 12.941406 94.195312 L 12.941406 126.800781 C 12.941406 137.726562 45.285156 147.429688 93.972656 152.9375 L 175.265625 234.144531 L 104.898438 304.511719 L 106.734375 306.433594 C 111.71875 311.328125 119.761719 311.328125 124.742188 306.433594 L 186.105469 245.070312 L 247.46875 306.433594 C 252.453125 311.328125 260.492188 311.328125 265.476562 306.433594 L 267.3125 304.511719 L 196.945312 234.144531 L 277.886719 153.289062 C 328.324219 147.867188 362.066406 137.992188 362.066406 126.800781 Z M 118.011719 155.210938 C 139.253906 156.785156 162.765625 157.746094 187.503906 157.746094 C 211.019531 157.746094 233.484375 156.871094 254.023438 155.386719 L 186.105469 223.304688 Z M 118.011719 155.210938 "/></g></svg>